<svg xmlns="http://www.w3.org/2000/svg" viewBox="0 0 774 774" shape-rendering="crispEdges">
  <!-- sugarcane: 61 crop on 9x9, 75.3% of usable ground -->
  <rect x="0" y="0" width="774" height="774" fill="#101828"/>
  <rect x="33" y="33" width="76" height="76" fill="#22c55e"/>
  <rect x="33" y="33" width="76" height="9" fill="#86efac"/>
  <rect x="33" y="33" width="9" height="76" fill="#86efac"/>
  <rect x="33" y="100" width="76" height="9" fill="#15803d"/>
  <rect x="100" y="33" width="9" height="76" fill="#15803d"/>
  <rect x="112" y="33" width="76" height="76" fill="#22c55e"/>
  <rect x="112" y="33" width="76" height="9" fill="#86efac"/>
  <rect x="112" y="33" width="9" height="76" fill="#86efac"/>
  <rect x="112" y="100" width="76" height="9" fill="#15803d"/>
  <rect x="179" y="33" width="9" height="76" fill="#15803d"/>
  <rect x="191" y="33" width="76" height="76" fill="#0ea5e9"/>
  <rect x="270" y="33" width="76" height="76" fill="#22c55e"/>
  <rect x="270" y="33" width="76" height="9" fill="#86efac"/>
  <rect x="270" y="33" width="9" height="76" fill="#86efac"/>
  <rect x="270" y="100" width="76" height="9" fill="#15803d"/>
  <rect x="337" y="33" width="9" height="76" fill="#15803d"/>
  <rect x="349" y="33" width="76" height="76" fill="#22c55e"/>
  <rect x="349" y="33" width="76" height="9" fill="#86efac"/>
  <rect x="349" y="33" width="9" height="76" fill="#86efac"/>
  <rect x="349" y="100" width="76" height="9" fill="#15803d"/>
  <rect x="416" y="33" width="9" height="76" fill="#15803d"/>
  <rect x="428" y="33" width="76" height="76" fill="#22c55e"/>
  <rect x="428" y="33" width="76" height="9" fill="#86efac"/>
  <rect x="428" y="33" width="9" height="76" fill="#86efac"/>
  <rect x="428" y="100" width="76" height="9" fill="#15803d"/>
  <rect x="495" y="33" width="9" height="76" fill="#15803d"/>
  <rect x="507" y="33" width="76" height="76" fill="#0ea5e9"/>
  <rect x="586" y="33" width="76" height="76" fill="#22c55e"/>
  <rect x="586" y="33" width="76" height="9" fill="#86efac"/>
  <rect x="586" y="33" width="9" height="76" fill="#86efac"/>
  <rect x="586" y="100" width="76" height="9" fill="#15803d"/>
  <rect x="653" y="33" width="9" height="76" fill="#15803d"/>
  <rect x="665" y="33" width="76" height="76" fill="#22c55e"/>
  <rect x="665" y="33" width="76" height="9" fill="#86efac"/>
  <rect x="665" y="33" width="9" height="76" fill="#86efac"/>
  <rect x="665" y="100" width="76" height="9" fill="#15803d"/>
  <rect x="732" y="33" width="9" height="76" fill="#15803d"/>
  <rect x="33" y="112" width="76" height="76" fill="#0ea5e9"/>
  <rect x="112" y="112" width="76" height="76" fill="#22c55e"/>
  <rect x="112" y="112" width="76" height="9" fill="#86efac"/>
  <rect x="112" y="112" width="9" height="76" fill="#86efac"/>
  <rect x="112" y="179" width="76" height="9" fill="#15803d"/>
  <rect x="179" y="112" width="9" height="76" fill="#15803d"/>
  <rect x="191" y="112" width="76" height="76" fill="#22c55e"/>
  <rect x="191" y="112" width="76" height="9" fill="#86efac"/>
  <rect x="191" y="112" width="9" height="76" fill="#86efac"/>
  <rect x="191" y="179" width="76" height="9" fill="#15803d"/>
  <rect x="258" y="112" width="9" height="76" fill="#15803d"/>
  <rect x="270" y="112" width="76" height="76" fill="#22c55e"/>
  <rect x="270" y="112" width="76" height="9" fill="#86efac"/>
  <rect x="270" y="112" width="9" height="76" fill="#86efac"/>
  <rect x="270" y="179" width="76" height="9" fill="#15803d"/>
  <rect x="337" y="112" width="9" height="76" fill="#15803d"/>
  <rect x="349" y="112" width="76" height="76" fill="#0ea5e9"/>
  <rect x="428" y="112" width="76" height="76" fill="#22c55e"/>
  <rect x="428" y="112" width="76" height="9" fill="#86efac"/>
  <rect x="428" y="112" width="9" height="76" fill="#86efac"/>
  <rect x="428" y="179" width="76" height="9" fill="#15803d"/>
  <rect x="495" y="112" width="9" height="76" fill="#15803d"/>
  <rect x="507" y="112" width="76" height="76" fill="#22c55e"/>
  <rect x="507" y="112" width="76" height="9" fill="#86efac"/>
  <rect x="507" y="112" width="9" height="76" fill="#86efac"/>
  <rect x="507" y="179" width="76" height="9" fill="#15803d"/>
  <rect x="574" y="112" width="9" height="76" fill="#15803d"/>
  <rect x="586" y="112" width="76" height="76" fill="#22c55e"/>
  <rect x="586" y="112" width="76" height="9" fill="#86efac"/>
  <rect x="586" y="112" width="9" height="76" fill="#86efac"/>
  <rect x="586" y="179" width="76" height="9" fill="#15803d"/>
  <rect x="653" y="112" width="9" height="76" fill="#15803d"/>
  <rect x="665" y="112" width="76" height="76" fill="#0ea5e9"/>
  <rect x="33" y="191" width="76" height="76" fill="#22c55e"/>
  <rect x="33" y="191" width="76" height="9" fill="#86efac"/>
  <rect x="33" y="191" width="9" height="76" fill="#86efac"/>
  <rect x="33" y="258" width="76" height="9" fill="#15803d"/>
  <rect x="100" y="191" width="9" height="76" fill="#15803d"/>
  <rect x="112" y="191" width="76" height="76" fill="#0ea5e9"/>
  <rect x="191" y="191" width="76" height="76" fill="#22c55e"/>
  <rect x="191" y="191" width="76" height="9" fill="#86efac"/>
  <rect x="191" y="191" width="9" height="76" fill="#86efac"/>
  <rect x="191" y="258" width="76" height="9" fill="#15803d"/>
  <rect x="258" y="191" width="9" height="76" fill="#15803d"/>
  <rect x="270" y="191" width="76" height="76" fill="#22c55e"/>
  <rect x="270" y="191" width="76" height="9" fill="#86efac"/>
  <rect x="270" y="191" width="9" height="76" fill="#86efac"/>
  <rect x="270" y="258" width="76" height="9" fill="#15803d"/>
  <rect x="337" y="191" width="9" height="76" fill="#15803d"/>
  <rect x="349" y="191" width="76" height="76" fill="#22c55e"/>
  <rect x="349" y="191" width="76" height="9" fill="#86efac"/>
  <rect x="349" y="191" width="9" height="76" fill="#86efac"/>
  <rect x="349" y="258" width="76" height="9" fill="#15803d"/>
  <rect x="416" y="191" width="9" height="76" fill="#15803d"/>
  <rect x="428" y="191" width="76" height="76" fill="#22c55e"/>
  <rect x="428" y="191" width="76" height="9" fill="#86efac"/>
  <rect x="428" y="191" width="9" height="76" fill="#86efac"/>
  <rect x="428" y="258" width="76" height="9" fill="#15803d"/>
  <rect x="495" y="191" width="9" height="76" fill="#15803d"/>
  <rect x="507" y="191" width="76" height="76" fill="#0ea5e9"/>
  <rect x="586" y="191" width="76" height="76" fill="#22c55e"/>
  <rect x="586" y="191" width="76" height="9" fill="#86efac"/>
  <rect x="586" y="191" width="9" height="76" fill="#86efac"/>
  <rect x="586" y="258" width="76" height="9" fill="#15803d"/>
  <rect x="653" y="191" width="9" height="76" fill="#15803d"/>
  <rect x="665" y="191" width="76" height="76" fill="#22c55e"/>
  <rect x="665" y="191" width="76" height="9" fill="#86efac"/>
  <rect x="665" y="191" width="9" height="76" fill="#86efac"/>
  <rect x="665" y="258" width="76" height="9" fill="#15803d"/>
  <rect x="732" y="191" width="9" height="76" fill="#15803d"/>
  <rect x="33" y="270" width="76" height="76" fill="#22c55e"/>
  <rect x="33" y="270" width="76" height="9" fill="#86efac"/>
  <rect x="33" y="270" width="9" height="76" fill="#86efac"/>
  <rect x="33" y="337" width="76" height="9" fill="#15803d"/>
  <rect x="100" y="270" width="9" height="76" fill="#15803d"/>
  <rect x="112" y="270" width="76" height="76" fill="#22c55e"/>
  <rect x="112" y="270" width="76" height="9" fill="#86efac"/>
  <rect x="112" y="270" width="9" height="76" fill="#86efac"/>
  <rect x="112" y="337" width="76" height="9" fill="#15803d"/>
  <rect x="179" y="270" width="9" height="76" fill="#15803d"/>
  <rect x="191" y="270" width="76" height="76" fill="#22c55e"/>
  <rect x="191" y="270" width="76" height="9" fill="#86efac"/>
  <rect x="191" y="270" width="9" height="76" fill="#86efac"/>
  <rect x="191" y="337" width="76" height="9" fill="#15803d"/>
  <rect x="258" y="270" width="9" height="76" fill="#15803d"/>
  <rect x="270" y="270" width="76" height="76" fill="#0ea5e9"/>
  <rect x="349" y="270" width="76" height="76" fill="#22c55e"/>
  <rect x="349" y="270" width="76" height="9" fill="#86efac"/>
  <rect x="349" y="270" width="9" height="76" fill="#86efac"/>
  <rect x="349" y="337" width="76" height="9" fill="#15803d"/>
  <rect x="416" y="270" width="9" height="76" fill="#15803d"/>
  <rect x="428" y="270" width="76" height="76" fill="#22c55e"/>
  <rect x="428" y="270" width="76" height="9" fill="#86efac"/>
  <rect x="428" y="270" width="9" height="76" fill="#86efac"/>
  <rect x="428" y="337" width="76" height="9" fill="#15803d"/>
  <rect x="495" y="270" width="9" height="76" fill="#15803d"/>
  <rect x="507" y="270" width="76" height="76" fill="#22c55e"/>
  <rect x="507" y="270" width="76" height="9" fill="#86efac"/>
  <rect x="507" y="270" width="9" height="76" fill="#86efac"/>
  <rect x="507" y="337" width="76" height="9" fill="#15803d"/>
  <rect x="574" y="270" width="9" height="76" fill="#15803d"/>
  <rect x="586" y="270" width="76" height="76" fill="#22c55e"/>
  <rect x="586" y="270" width="76" height="9" fill="#86efac"/>
  <rect x="586" y="270" width="9" height="76" fill="#86efac"/>
  <rect x="586" y="337" width="76" height="9" fill="#15803d"/>
  <rect x="653" y="270" width="9" height="76" fill="#15803d"/>
  <rect x="665" y="270" width="76" height="76" fill="#0ea5e9"/>
  <rect x="33" y="349" width="76" height="76" fill="#0ea5e9"/>
  <rect x="112" y="349" width="76" height="76" fill="#22c55e"/>
  <rect x="112" y="349" width="76" height="9" fill="#86efac"/>
  <rect x="112" y="349" width="9" height="76" fill="#86efac"/>
  <rect x="112" y="416" width="76" height="9" fill="#15803d"/>
  <rect x="179" y="349" width="9" height="76" fill="#15803d"/>
  <rect x="191" y="349" width="76" height="76" fill="#22c55e"/>
  <rect x="191" y="349" width="76" height="9" fill="#86efac"/>
  <rect x="191" y="349" width="9" height="76" fill="#86efac"/>
  <rect x="191" y="416" width="76" height="9" fill="#15803d"/>
  <rect x="258" y="349" width="9" height="76" fill="#15803d"/>
  <rect x="270" y="349" width="76" height="76" fill="#22c55e"/>
  <rect x="270" y="349" width="76" height="9" fill="#86efac"/>
  <rect x="270" y="349" width="9" height="76" fill="#86efac"/>
  <rect x="270" y="416" width="76" height="9" fill="#15803d"/>
  <rect x="337" y="349" width="9" height="76" fill="#15803d"/>
  <rect x="349" y="349" width="76" height="76" fill="#22c55e"/>
  <rect x="349" y="349" width="76" height="9" fill="#86efac"/>
  <rect x="349" y="349" width="9" height="76" fill="#86efac"/>
  <rect x="349" y="416" width="76" height="9" fill="#15803d"/>
  <rect x="416" y="349" width="9" height="76" fill="#15803d"/>
  <rect x="428" y="349" width="76" height="76" fill="#0ea5e9"/>
  <rect x="507" y="349" width="76" height="76" fill="#22c55e"/>
  <rect x="507" y="349" width="76" height="9" fill="#86efac"/>
  <rect x="507" y="349" width="9" height="76" fill="#86efac"/>
  <rect x="507" y="416" width="76" height="9" fill="#15803d"/>
  <rect x="574" y="349" width="9" height="76" fill="#15803d"/>
  <rect x="586" y="349" width="76" height="76" fill="#22c55e"/>
  <rect x="586" y="349" width="76" height="9" fill="#86efac"/>
  <rect x="586" y="349" width="9" height="76" fill="#86efac"/>
  <rect x="586" y="416" width="76" height="9" fill="#15803d"/>
  <rect x="653" y="349" width="9" height="76" fill="#15803d"/>
  <rect x="665" y="349" width="76" height="76" fill="#22c55e"/>
  <rect x="665" y="349" width="76" height="9" fill="#86efac"/>
  <rect x="665" y="349" width="9" height="76" fill="#86efac"/>
  <rect x="665" y="416" width="76" height="9" fill="#15803d"/>
  <rect x="732" y="349" width="9" height="76" fill="#15803d"/>
  <rect x="33" y="428" width="76" height="76" fill="#22c55e"/>
  <rect x="33" y="428" width="76" height="9" fill="#86efac"/>
  <rect x="33" y="428" width="9" height="76" fill="#86efac"/>
  <rect x="33" y="495" width="76" height="9" fill="#15803d"/>
  <rect x="100" y="428" width="9" height="76" fill="#15803d"/>
  <rect x="112" y="428" width="76" height="76" fill="#22c55e"/>
  <rect x="112" y="428" width="76" height="9" fill="#86efac"/>
  <rect x="112" y="428" width="9" height="76" fill="#86efac"/>
  <rect x="112" y="495" width="76" height="9" fill="#15803d"/>
  <rect x="179" y="428" width="9" height="76" fill="#15803d"/>
  <rect x="191" y="428" width="76" height="76" fill="#0ea5e9"/>
  <rect x="270" y="428" width="76" height="76" fill="#22c55e"/>
  <rect x="270" y="428" width="76" height="9" fill="#86efac"/>
  <rect x="270" y="428" width="9" height="76" fill="#86efac"/>
  <rect x="270" y="495" width="76" height="9" fill="#15803d"/>
  <rect x="337" y="428" width="9" height="76" fill="#15803d"/>
  <rect x="349" y="428" width="76" height="76" fill="#22c55e"/>
  <rect x="349" y="428" width="76" height="9" fill="#86efac"/>
  <rect x="349" y="428" width="9" height="76" fill="#86efac"/>
  <rect x="349" y="495" width="76" height="9" fill="#15803d"/>
  <rect x="416" y="428" width="9" height="76" fill="#15803d"/>
  <rect x="428" y="428" width="76" height="76" fill="#22c55e"/>
  <rect x="428" y="428" width="76" height="9" fill="#86efac"/>
  <rect x="428" y="428" width="9" height="76" fill="#86efac"/>
  <rect x="428" y="495" width="76" height="9" fill="#15803d"/>
  <rect x="495" y="428" width="9" height="76" fill="#15803d"/>
  <rect x="507" y="428" width="76" height="76" fill="#22c55e"/>
  <rect x="507" y="428" width="76" height="9" fill="#86efac"/>
  <rect x="507" y="428" width="9" height="76" fill="#86efac"/>
  <rect x="507" y="495" width="76" height="9" fill="#15803d"/>
  <rect x="574" y="428" width="9" height="76" fill="#15803d"/>
  <rect x="586" y="428" width="76" height="76" fill="#0ea5e9"/>
  <rect x="665" y="428" width="76" height="76" fill="#22c55e"/>
  <rect x="665" y="428" width="76" height="9" fill="#86efac"/>
  <rect x="665" y="428" width="9" height="76" fill="#86efac"/>
  <rect x="665" y="495" width="76" height="9" fill="#15803d"/>
  <rect x="732" y="428" width="9" height="76" fill="#15803d"/>
  <rect x="33" y="507" width="76" height="76" fill="#22c55e"/>
  <rect x="33" y="507" width="76" height="9" fill="#86efac"/>
  <rect x="33" y="507" width="9" height="76" fill="#86efac"/>
  <rect x="33" y="574" width="76" height="9" fill="#15803d"/>
  <rect x="100" y="507" width="9" height="76" fill="#15803d"/>
  <rect x="112" y="507" width="76" height="76" fill="#22c55e"/>
  <rect x="112" y="507" width="76" height="9" fill="#86efac"/>
  <rect x="112" y="507" width="9" height="76" fill="#86efac"/>
  <rect x="112" y="574" width="76" height="9" fill="#15803d"/>
  <rect x="179" y="507" width="9" height="76" fill="#15803d"/>
  <rect x="191" y="507" width="76" height="76" fill="#22c55e"/>
  <rect x="191" y="507" width="76" height="9" fill="#86efac"/>
  <rect x="191" y="507" width="9" height="76" fill="#86efac"/>
  <rect x="191" y="574" width="76" height="9" fill="#15803d"/>
  <rect x="258" y="507" width="9" height="76" fill="#15803d"/>
  <rect x="270" y="507" width="76" height="76" fill="#22c55e"/>
  <rect x="270" y="507" width="76" height="9" fill="#86efac"/>
  <rect x="270" y="507" width="9" height="76" fill="#86efac"/>
  <rect x="270" y="574" width="76" height="9" fill="#15803d"/>
  <rect x="337" y="507" width="9" height="76" fill="#15803d"/>
  <rect x="349" y="507" width="76" height="76" fill="#0ea5e9"/>
  <rect x="428" y="507" width="76" height="76" fill="#22c55e"/>
  <rect x="428" y="507" width="76" height="9" fill="#86efac"/>
  <rect x="428" y="507" width="9" height="76" fill="#86efac"/>
  <rect x="428" y="574" width="76" height="9" fill="#15803d"/>
  <rect x="495" y="507" width="9" height="76" fill="#15803d"/>
  <rect x="507" y="507" width="76" height="76" fill="#22c55e"/>
  <rect x="507" y="507" width="76" height="9" fill="#86efac"/>
  <rect x="507" y="507" width="9" height="76" fill="#86efac"/>
  <rect x="507" y="574" width="76" height="9" fill="#15803d"/>
  <rect x="574" y="507" width="9" height="76" fill="#15803d"/>
  <rect x="586" y="507" width="76" height="76" fill="#22c55e"/>
  <rect x="586" y="507" width="76" height="9" fill="#86efac"/>
  <rect x="586" y="507" width="9" height="76" fill="#86efac"/>
  <rect x="586" y="574" width="76" height="9" fill="#15803d"/>
  <rect x="653" y="507" width="9" height="76" fill="#15803d"/>
  <rect x="665" y="507" width="76" height="76" fill="#22c55e"/>
  <rect x="665" y="507" width="76" height="9" fill="#86efac"/>
  <rect x="665" y="507" width="9" height="76" fill="#86efac"/>
  <rect x="665" y="574" width="76" height="9" fill="#15803d"/>
  <rect x="732" y="507" width="9" height="76" fill="#15803d"/>
  <rect x="33" y="586" width="79" height="76" fill="#0ea5e9"/>
  <rect x="112" y="586" width="76" height="76" fill="#0ea5e9"/>
  <rect x="191" y="586" width="76" height="76" fill="#22c55e"/>
  <rect x="191" y="586" width="76" height="9" fill="#86efac"/>
  <rect x="191" y="586" width="9" height="76" fill="#86efac"/>
  <rect x="191" y="653" width="76" height="9" fill="#15803d"/>
  <rect x="258" y="586" width="9" height="76" fill="#15803d"/>
  <rect x="270" y="586" width="76" height="76" fill="#22c55e"/>
  <rect x="270" y="586" width="76" height="9" fill="#86efac"/>
  <rect x="270" y="586" width="9" height="76" fill="#86efac"/>
  <rect x="270" y="653" width="76" height="9" fill="#15803d"/>
  <rect x="337" y="586" width="9" height="76" fill="#15803d"/>
  <rect x="349" y="586" width="76" height="76" fill="#22c55e"/>
  <rect x="349" y="586" width="76" height="9" fill="#86efac"/>
  <rect x="349" y="586" width="9" height="76" fill="#86efac"/>
  <rect x="349" y="653" width="76" height="9" fill="#15803d"/>
  <rect x="416" y="586" width="9" height="76" fill="#15803d"/>
  <rect x="428" y="586" width="76" height="76" fill="#22c55e"/>
  <rect x="428" y="586" width="76" height="9" fill="#86efac"/>
  <rect x="428" y="586" width="9" height="76" fill="#86efac"/>
  <rect x="428" y="653" width="76" height="9" fill="#15803d"/>
  <rect x="495" y="586" width="9" height="76" fill="#15803d"/>
  <rect x="507" y="586" width="76" height="79" fill="#0ea5e9"/>
  <rect x="586" y="586" width="76" height="76" fill="#22c55e"/>
  <rect x="586" y="586" width="76" height="9" fill="#86efac"/>
  <rect x="586" y="586" width="9" height="76" fill="#86efac"/>
  <rect x="586" y="653" width="76" height="9" fill="#15803d"/>
  <rect x="653" y="586" width="9" height="76" fill="#15803d"/>
  <rect x="665" y="586" width="76" height="76" fill="#0ea5e9"/>
  <rect x="33" y="665" width="76" height="76" fill="#22c55e"/>
  <rect x="33" y="665" width="76" height="9" fill="#86efac"/>
  <rect x="33" y="665" width="9" height="76" fill="#86efac"/>
  <rect x="33" y="732" width="76" height="9" fill="#15803d"/>
  <rect x="100" y="665" width="9" height="76" fill="#15803d"/>
  <rect x="112" y="665" width="76" height="76" fill="#22c55e"/>
  <rect x="112" y="665" width="76" height="9" fill="#86efac"/>
  <rect x="112" y="665" width="9" height="76" fill="#86efac"/>
  <rect x="112" y="732" width="76" height="9" fill="#15803d"/>
  <rect x="179" y="665" width="9" height="76" fill="#15803d"/>
  <rect x="191" y="665" width="76" height="76" fill="#22c55e"/>
  <rect x="191" y="665" width="76" height="9" fill="#86efac"/>
  <rect x="191" y="665" width="9" height="76" fill="#86efac"/>
  <rect x="191" y="732" width="76" height="9" fill="#15803d"/>
  <rect x="258" y="665" width="9" height="76" fill="#15803d"/>
  <rect x="270" y="665" width="76" height="76" fill="#0ea5e9"/>
  <rect x="349" y="665" width="76" height="76" fill="#22c55e"/>
  <rect x="349" y="665" width="76" height="9" fill="#86efac"/>
  <rect x="349" y="665" width="9" height="76" fill="#86efac"/>
  <rect x="349" y="732" width="76" height="9" fill="#15803d"/>
  <rect x="416" y="665" width="9" height="76" fill="#15803d"/>
  <rect x="428" y="665" width="76" height="76" fill="#22c55e"/>
  <rect x="428" y="665" width="76" height="9" fill="#86efac"/>
  <rect x="428" y="665" width="9" height="76" fill="#86efac"/>
  <rect x="428" y="732" width="76" height="9" fill="#15803d"/>
  <rect x="495" y="665" width="9" height="76" fill="#15803d"/>
  <rect x="507" y="665" width="76" height="76" fill="#0ea5e9"/>
  <rect x="586" y="665" width="76" height="76" fill="#22c55e"/>
  <rect x="586" y="665" width="76" height="9" fill="#86efac"/>
  <rect x="586" y="665" width="9" height="76" fill="#86efac"/>
  <rect x="586" y="732" width="76" height="9" fill="#15803d"/>
  <rect x="653" y="665" width="9" height="76" fill="#15803d"/>
  <rect x="665" y="665" width="76" height="76" fill="#22c55e"/>
  <rect x="665" y="665" width="76" height="9" fill="#86efac"/>
  <rect x="665" y="665" width="9" height="76" fill="#86efac"/>
  <rect x="665" y="732" width="76" height="9" fill="#15803d"/>
  <rect x="732" y="665" width="9" height="76" fill="#15803d"/>
</svg>
